<svg width="12" height="14" viewBox="0 0 12 14" fill="none" xmlns="http://www.w3.org/2000/svg">
<path d="M8.37488 0C8.39467 0.23552 8.41759 0.471041 8.40266 0.707932C8.36377 1.31336 8.16795 1.84885 7.70234 2.2695C7.31069 2.62329 6.8489 2.84887 6.34857 3.00588C6.16767 3.06279 5.98226 3.10256 5.79477 3.1341C5.7354 3.14404 5.70554 3.14336 5.70415 3.06931C5.68957 2.32983 5.82706 1.63424 6.34301 1.06413C6.71835 0.649309 7.20062 0.385335 7.72143 0.188553C7.90893 0.117932 8.10232 0.062394 8.29329 0C8.32037 0 8.34745 0 8.37488 0Z" fill="#010101"/>
<path d="M0.00096773 7.26307C-0.0191704 6.3611 0.274221 5.41456 0.953362 4.59864C1.3655 4.10326 1.85402 3.70421 2.48594 3.51017C3.17168 3.29968 3.85117 3.32162 4.51955 3.58936C4.74141 3.67815 4.96571 3.76146 5.18584 3.85368C5.57333 4.01618 5.95248 3.96887 6.3358 3.83345C6.73127 3.69358 7.10313 3.49029 7.51596 3.40047C8.36523 3.21568 9.17076 3.32847 9.92073 3.77174C10.2895 3.98978 10.6037 4.2709 10.878 4.59761C10.9426 4.67474 10.9269 4.70251 10.8523 4.75634C10.4034 5.07928 10.0318 5.4725 9.7683 5.95862C9.40686 6.62507 9.36624 7.32306 9.58081 8.03854C9.82837 8.86406 10.3027 9.52262 11.0724 9.95424C11.0922 9.96521 11.1113 9.97721 11.1311 9.98749C11.3575 10.1041 11.3606 10.1054 11.2603 10.3437C10.9332 11.1202 10.5749 11.8816 10.053 12.5528C9.72629 12.9732 9.29714 13.2841 8.85515 13.5745C8.50065 13.8076 8.11837 13.7757 7.73227 13.6591C7.4552 13.5755 7.18368 13.4761 6.91946 13.3612C6.31739 13.0993 5.71846 13.1141 5.11119 13.3437C4.76988 13.4726 4.4324 13.6125 4.07616 13.7034C3.59597 13.8258 3.17446 13.6934 2.77725 13.437C2.26303 13.1051 1.87729 12.6482 1.53528 12.1555C0.883226 11.2162 0.455117 10.1788 0.202002 9.07078C0.0770065 8.525 0.00131494 7.971 0.00096773 7.26307Z" fill="black"/>
</svg>
