<svg width="31" height="7" viewBox="0 0 31 7" fill="none" xmlns="http://www.w3.org/2000/svg">
<path d="M29.7455 3.89068H0.444718C0.39556 3.89531 0.346108 3.89531 0.296951 3.89068C0.207758 3.8719 0.128289 3.81915 0.073757 3.74254C0.0192247 3.66593 -0.00653753 3.57083 0.00141512 3.47547C0.00821616 3.38176 0.0466787 3.2937 0.109833 3.22724C0.172987 3.16078 0.256662 3.12031 0.345716 3.11315H29.7307C29.6937 3.06961 29.6671 3.04006 29.6391 3.01051L27.4373 0.691952C27.3975 0.657527 27.3649 0.614736 27.3417 0.566326C27.3184 0.517915 27.305 0.464946 27.3023 0.410783C27.2996 0.35662 27.3077 0.302451 27.326 0.251747C27.3443 0.201043 27.3724 0.15491 27.4086 0.116288C27.4448 0.0776661 27.4883 0.0474022 27.5362 0.0274307C27.5841 0.00745922 27.6354 -0.00178961 27.6869 0.000285717C27.7384 0.00236105 27.789 0.0157154 27.8353 0.0394846C27.8816 0.0632538 27.9227 0.0969249 27.956 0.138346L28.9505 1.18645L30.836 3.17069C31.0547 3.40084 31.0547 3.60143 30.836 3.82847L27.956 6.86082C27.9124 6.9158 27.8552 6.957 27.7907 6.97982C27.7262 7.00264 27.6569 7.00618 27.5906 6.99007C27.5243 6.97395 27.4636 6.93882 27.4151 6.88855C27.3667 6.83828 27.3324 6.77484 27.3162 6.70531C27.2973 6.63255 27.2986 6.55561 27.3201 6.48365C27.3416 6.41169 27.3823 6.34776 27.4373 6.29945C28.0432 5.66499 28.6475 5.03001 29.2504 4.39451C29.413 4.22968 29.5696 4.06795 29.7455 3.89068Z" fill="#3E3E3E"/>
</svg>
