<svg width="7" height="14" viewBox="0 0 7 14" fill="none" xmlns="http://www.w3.org/2000/svg">
<g clip-path="url(#clip0_323_12106)">
<path d="M1.95328 10.3525C1.95328 9.4725 1.95117 8.59248 1.95581 7.71246C1.95666 7.58873 1.92964 7.54517 1.80134 7.54735C1.34891 7.55562 0.896484 7.55301 0.443632 7.54996C0.066748 7.54735 0.000909376 7.47721 0.000487333 7.09427C6.52902e-05 6.47521 -0.000356752 5.85571 0.000487333 5.23665C0.000909376 4.88987 0.0827856 4.80535 0.421264 4.80404C0.868629 4.80274 1.31599 4.79402 1.76294 4.8084C1.93091 4.81363 1.95623 4.75656 1.95666 4.60016C1.95919 4.00854 1.93133 3.41693 1.97987 2.82531C2.10732 1.27003 3.17467 0.15999 4.67968 0.0319083C5.34692 -0.0247265 6.01544 0.0131752 6.68311 0.0105613C6.89033 0.00969003 6.9912 0.106405 6.99374 0.319003C7.00175 0.975967 7.00133 1.63337 6.99374 2.29077C6.9912 2.49465 6.90975 2.57743 6.70928 2.58527C6.27289 2.60226 5.83649 2.60356 5.39968 2.61141C4.89703 2.62055 4.70078 2.82008 4.69613 3.33372C4.69234 3.77373 4.6974 4.21374 4.68938 4.65374C4.68685 4.77834 4.72526 4.80797 4.8409 4.80666C5.3828 4.80056 5.9247 4.80361 6.46703 4.80448C6.52485 4.80448 6.58309 4.80448 6.64006 4.81276C6.8342 4.8402 6.90933 4.91949 6.91059 5.12338C6.91397 5.82957 6.91397 6.53576 6.91017 7.24195C6.90933 7.44715 6.83336 7.53471 6.63373 7.5382C6.05005 7.54909 5.46594 7.55475 4.88183 7.54735C4.72019 7.54517 4.68221 7.59135 4.68305 7.75515C4.68896 9.44461 4.68685 11.1336 4.68685 12.8231C4.68685 13.3136 4.63705 13.365 4.16521 13.365C3.56 13.365 2.95479 13.3659 2.34958 13.3646C2.03684 13.3642 1.95328 13.2792 1.95328 12.9612C1.95243 12.0908 1.95328 11.2216 1.95328 10.3525Z" fill="#3D6AD5"/>
</g>
<defs>
<clipPath id="clip0_323_12106">
<rect width="7" height="13.3636" fill="white"/>
</clipPath>
</defs>
</svg>
