<svg width="14" height="14" viewBox="0 0 14 14" fill="none" xmlns="http://www.w3.org/2000/svg">
<path d="M3.73658 4.99894C3.51577 5.40454 3.34379 5.827 3.27198 6.28787C3.14165 7.12562 3.28096 7.91312 3.68919 8.65468C3.70642 8.68554 3.72043 8.71821 3.73623 8.75015C3.53875 8.94469 3.34056 9.13888 3.14416 9.33449C2.56969 9.90556 1.99593 10.4773 1.42182 11.0488C1.415 11.0434 1.40638 11.0391 1.40135 11.0322C0.697266 10.1069 0.258513 9.06888 0.0779128 7.9203C0.0527797 7.75986 0.0657053 7.59295 0 7.43933C0 7.06317 0 6.68736 0 6.3112C0.063192 6.15722 0.0527797 5.99068 0.0779128 5.83023C0.257795 4.68201 0.69583 3.64433 1.39992 2.71936C1.40494 2.71254 1.41356 2.70823 1.42038 2.70285C1.45988 2.7391 1.50045 2.77428 1.53815 2.81232C2.13991 3.41318 2.74059 4.01475 3.34235 4.61524C3.47269 4.74446 3.60517 4.87116 3.73658 4.99894Z" fill="#FABC00"/>
<path d="M1.42188 11.0484C1.99599 10.477 2.56974 9.90522 3.14422 9.33416C3.34097 9.13854 3.53881 8.94472 3.73628 8.74982C3.99838 9.15254 4.3068 9.51327 4.69565 9.80113C5.34409 10.2807 6.07438 10.5158 6.87793 10.5316C6.87793 11.6044 6.87757 12.6773 6.87757 13.7501C6.68943 13.7501 6.50129 13.7501 6.31351 13.7501C6.29699 13.711 6.26073 13.7246 6.23201 13.7218C4.96314 13.5961 3.81132 13.1618 2.78661 12.4016C2.26779 12.0168 1.80354 11.5735 1.42188 11.0484Z" fill="#31AA52"/>
<path d="M6.87891 13.75C6.87891 12.6772 6.87927 11.6043 6.87927 10.5315C7.54996 10.5228 8.1747 10.3466 8.75743 10.0178C9.17967 10.4424 9.60191 10.8674 10.0238 11.292C10.367 11.6377 10.7099 11.9837 11.0532 12.3293C10.497 12.7759 9.87514 13.1029 9.20696 13.3458C8.66659 13.5425 8.10828 13.6617 7.53632 13.7202C7.50472 13.7234 7.46235 13.7037 7.44297 13.7496C7.25519 13.75 7.06705 13.75 6.87891 13.75Z" fill="#0F9D58"/>
<path d="M11.0525 12.3301C10.7092 11.9841 10.3664 11.6384 10.0231 11.2928C9.60123 10.8678 9.179 10.4432 8.75676 10.0186C9.26589 9.69411 9.69423 9.28959 10.0034 8.76662C10.0475 8.69197 10.1445 8.60762 10.1043 8.53619C10.0741 8.48271 9.94699 8.52004 9.86334 8.52004C8.91438 8.51896 7.96578 8.51752 7.01683 8.52183C6.90732 8.52219 6.87464 8.49742 6.875 8.38328C6.87967 7.39909 6.87931 6.41454 6.87572 5.43034C6.87536 5.32948 6.89547 5.29359 7.00605 5.29395C9.15422 5.29754 11.3027 5.29718 13.4509 5.29467C13.5482 5.29467 13.5874 5.31764 13.6067 5.42101C14.0577 7.84883 13.4502 9.96259 11.7311 11.745C11.5243 11.9597 11.3027 12.1625 11.0525 12.3301Z" fill="#3C79E5"/>
<path d="M3.73736 4.99889C3.60595 4.87111 3.47346 4.74441 3.34384 4.61483C2.74208 4.01434 2.14104 3.41276 1.53964 2.81191C1.50158 2.77422 1.46101 2.73905 1.42188 2.70244C1.75938 2.23475 2.16618 1.83382 2.6175 1.47883C3.84328 0.5151 5.2396 0.0276686 6.79822 3.07636e-05C6.82479 -0.000328169 6.85172 0.00254329 6.87829 0.00397903C6.87829 1.07539 6.87829 2.14645 6.87829 3.21786C6.07977 3.23366 5.35378 3.46589 4.7075 3.9404C4.31363 4.2297 4.00233 4.59258 3.73736 4.99889Z" fill="#EA4132"/>
<path d="M6.87891 3.2179C6.87891 2.14648 6.87891 1.07543 6.87891 0.00401238C8.06124 -0.00244841 9.16854 0.286134 10.2044 0.853607C10.8657 1.21577 11.4391 1.68956 11.9616 2.2294C12.0143 2.28395 12.015 2.3141 11.9612 2.36759C11.2445 3.08079 10.529 3.79506 9.81661 4.51257C9.74876 4.58077 9.71824 4.5499 9.67013 4.50001C9.37858 4.19491 9.06621 3.91638 8.69711 3.70497C8.13377 3.38193 7.52519 3.23118 6.87891 3.2179Z" fill="#CE2D48"/>
</svg>
