<svg width="50" height="50" viewBox="0 0 50 50" fill="none" xmlns="http://www.w3.org/2000/svg">
<rect width="50" height="50" rx="5" fill="white"/>
<g clip-path="url(#clip0_135_10707)">
<path d="M31.1016 33.7617C30.5703 34.3281 29.1484 35 27.2969 35C22.5781 35 21.5547 31.5312 21.5547 29.5078V23.8828H19.6992C19.4844 23.8828 19.3086 23.707 19.3086 23.4922V20.8359C19.3086 20.5547 19.4844 20.3047 19.75 20.2109C22.1719 19.3594 22.9336 17.2422 23.043 15.6367C23.0742 15.207 23.2969 15 23.6719 15H26.4414C26.6563 15 26.832 15.1758 26.832 15.3906V19.8906H30.0742C30.2891 19.8906 30.4648 20.0625 30.4648 20.2773V23.4688C30.4648 23.6836 30.2891 23.8594 30.0742 23.8594H26.8164V29.0625C26.8164 30.3984 27.7422 31.1562 29.4727 30.4609C29.6602 30.3867 29.8242 30.3359 29.9687 30.375C30.1055 30.4102 30.1953 30.5078 30.2578 30.6836L31.1172 33.1953C31.1875 33.3906 31.2461 33.6094 31.1016 33.7617Z" fill="#36465D"/>
</g>
<defs>
<clipPath id="clip0_135_10707">
<rect width="12.5" height="20" fill="white" transform="translate(19 15)"/>
</clipPath>
</defs>
</svg>
