<svg width="50" height="50" viewBox="0 0 50 50" fill="none" xmlns="http://www.w3.org/2000/svg">
<rect width="50" height="50" rx="5" fill="white"/>
<path d="M29.0469 21.5469C29.2969 21.5469 29.5391 21.5586 29.7812 21.5898C29.1328 18.5273 25.8477 16.25 22.1133 16.25C17.9258 16.25 14.5078 19.0937 14.5078 22.7109C14.5078 24.7969 15.6523 26.5195 17.5508 27.8516L16.7969 30.1406L19.4531 28.8086C20.4063 28.9961 21.1641 29.1875 22.1172 29.1875C22.3594 29.1875 22.5898 29.1758 22.832 29.1562C22.6758 28.6523 22.5898 28.1172 22.5898 27.5625C22.5859 24.2461 25.4375 21.5469 29.0469 21.5469ZM24.9648 19.4805C25.5313 19.4805 25.9102 19.8594 25.9102 20.4336C25.9102 21 25.5313 21.3789 24.9648 21.3789C24.3867 21.3789 23.8203 21 23.8203 20.4336C23.8242 19.8594 24.3906 19.4805 24.9648 19.4805ZM19.6367 21.3789C19.0703 21.3789 18.4922 21 18.4922 20.4336C18.4922 19.8555 19.0703 19.4805 19.6367 19.4805C20.2148 19.4805 20.5898 19.8594 20.5898 20.4336C20.5898 21.0039 20.2148 21.3789 19.6367 21.3789ZM35.9922 27.4766C35.9922 24.4336 32.9492 21.957 29.5313 21.957C25.9102 21.957 23.0703 24.4336 23.0703 27.4766C23.0703 30.5195 25.9141 32.9961 29.5313 32.9961C30.2852 32.9961 31.0508 32.7969 31.8203 32.6094L33.9063 33.7539L33.3281 31.8555C34.8594 30.707 35.9922 29.1875 35.9922 27.4766ZM27.4336 26.5195C27.0547 26.5195 26.6797 26.1406 26.6797 25.7539C26.6797 25.375 27.0586 25 27.4336 25C28.0117 25 28.3867 25.3789 28.3867 25.7539C28.3867 26.1445 28.0078 26.5195 27.4336 26.5195ZM31.6172 26.5195C31.2383 26.5195 30.8633 26.1406 30.8633 25.7539C30.8633 25.375 31.2422 25 31.6172 25C32.1836 25 32.5703 25.3789 32.5703 25.7539C32.5742 26.1445 32.1836 26.5195 31.6172 26.5195Z" fill="#09B83E"/>
</svg>
