<svg width="50" height="50" viewBox="0 0 50 50" fill="none" xmlns="http://www.w3.org/2000/svg">
<rect width="50" height="50" rx="5" fill="white"/>
<path d="M35.4727 19.8477C35.2266 18.9219 34.5039 18.1953 33.5859 17.9492C31.9219 17.5 25.25 17.5 25.25 17.5C25.25 17.5 18.5781 17.5 16.9141 17.9492C15.9961 18.1953 15.2734 18.9219 15.0273 19.8477C14.582 21.5234 14.582 25.0156 14.582 25.0156C14.582 25.0156 14.582 28.5078 15.0273 30.1836C15.2734 31.1094 15.9961 31.8047 16.9141 32.0508C18.5781 32.5 25.25 32.5 25.25 32.5C25.25 32.5 31.9219 32.5 33.5859 32.0508C34.5039 31.8047 35.2266 31.1055 35.4727 30.1836C35.918 28.5078 35.918 25.0156 35.918 25.0156C35.918 25.0156 35.918 21.5234 35.4727 19.8477ZM23.0703 28.1875V21.8437L28.6445 25.0156L23.0703 28.1875Z" fill="#FF0000"/>
</svg>
