<svg width="50" height="50" viewBox="0 0 50 50" fill="none" xmlns="http://www.w3.org/2000/svg">
<rect width="50" height="50" rx="5" fill="white"/>
<path d="M26.0484 23.4317C26.3975 22.916 26.8381 22.4686 27.3484 22.1117C28.3969 21.3974 29.5684 21.2545 30.7969 21.3602C31.5944 21.4062 32.3671 21.654 33.0426 22.0802C33.9855 22.7088 34.4512 23.646 34.7084 24.7088C34.9217 25.6863 35.0176 26.6857 34.9941 27.6859C34.9941 30.0345 34.9941 32.3859 34.9941 34.7345C34.9941 34.9145 34.9598 34.9688 34.7712 34.9659C33.535 34.9659 32.2969 34.9659 31.0569 34.9659C30.8712 34.9659 30.8312 34.9202 30.8341 34.7402C30.8341 32.504 30.8341 30.2679 30.8341 28.0317C30.8379 27.5677 30.7957 27.1045 30.7084 26.6488C30.4226 25.2688 29.5398 24.8259 28.2912 24.9717C27.1255 25.1117 26.4941 25.8002 26.2912 27.0574C26.2255 27.5154 26.194 27.9776 26.1969 28.4402C26.1969 30.5488 26.1969 32.6545 26.1969 34.7602C26.1969 34.9488 26.1541 35.0002 25.9598 35.0002C24.7312 35.0002 23.5036 35.0002 22.2769 35.0002C22.1084 35.0002 22.0398 34.9831 22.0398 34.7831C22.0398 30.4745 22.0398 26.165 22.0398 21.8545C22.0398 21.6745 22.0998 21.6459 22.2627 21.6459C23.4398 21.6459 24.6198 21.6459 25.7998 21.6459C25.9912 21.6459 26.0283 21.706 26.0226 21.8802C26.0398 22.3945 26.0484 22.9145 26.0484 23.4317Z" fill="#0077B5"/>
<path d="M15.3313 28.3287C15.3313 26.183 15.3313 24.043 15.3313 21.8944C15.3313 21.6915 15.3827 21.6401 15.5855 21.6401C16.8055 21.6401 18.0227 21.6401 19.2427 21.6401C19.4227 21.6401 19.4913 21.6687 19.4913 21.8744C19.4913 26.1715 19.4913 30.4706 19.4913 34.7715C19.4913 34.9601 19.437 34.9973 19.2599 34.9973C18.0256 34.9973 16.7884 34.9973 15.5456 34.9973C15.3484 34.9973 15.3256 34.9344 15.3256 34.763C15.3341 32.6201 15.3313 30.4744 15.3313 28.3287Z" fill="#0077B5"/>
<path d="M19.8 17.4057C19.7989 17.88 19.6572 18.3434 19.393 18.7372C19.1287 19.1311 18.7536 19.4378 18.3152 19.6187C17.8767 19.7995 17.3944 19.8464 16.9293 19.7534C16.4642 19.6604 16.0371 19.4316 15.7019 19.096C15.3668 18.7605 15.1385 18.3331 15.046 17.8679C14.9536 17.4027 15.001 16.9205 15.1824 16.4822C15.3638 16.044 15.671 15.6693 16.0652 15.4055C16.4593 15.1417 16.9228 15.0006 17.3972 15C18.0335 15.0045 18.6425 15.2595 19.0923 15.7098C19.542 16.1601 19.7962 16.7693 19.8 17.4057V17.4057Z" fill="#0077B5"/>
</svg>
