<svg width="50" height="50" viewBox="0 0 50 50" fill="none" xmlns="http://www.w3.org/2000/svg">
<rect width="50" height="50" rx="5" fill="white"/>
<path d="M30.0626 35H19.8323C19.6005 34.93 19.3635 34.8784 19.1236 34.8457C18.17 34.6146 17.2977 34.1272 16.6011 33.4362C15.9045 32.7451 15.4101 31.8768 15.1715 30.925C15.1319 30.6661 15.0746 30.4102 15 30.1592V19.8488C15.0514 19.8345 15.0371 19.7888 15.0429 19.7516C15.0982 19.2471 15.2322 18.7544 15.4401 18.2914C16.4431 16.1796 18.1148 15.0451 20.4581 15.0165C23.4815 14.9794 26.5077 15.0165 29.534 15.0165C30.2911 15.0004 31.0421 15.1547 31.7315 15.468C33.8576 16.4796 34.9663 18.177 34.9892 20.5346C35.0149 23.5208 34.9892 26.5071 34.9892 29.4933C34.9986 29.9693 34.9429 30.4442 34.8235 30.905C34.5897 31.8569 34.0992 32.7264 33.4053 33.4188C32.7115 34.1111 31.8409 34.5997 30.8885 34.8314C30.6199 34.9086 30.337 34.9457 30.0626 35ZM30.4541 24.9982C30.4541 23.9175 30.1338 22.8611 29.5336 21.9623C28.9334 21.0636 28.0803 20.3629 27.0821 19.9488C26.0839 19.5347 24.9853 19.4258 23.9252 19.6358C22.8651 19.8458 21.891 20.3653 21.126 21.1287C20.361 21.8921 19.8394 22.8651 19.6272 23.9248C19.415 24.9845 19.5216 26.0832 19.9336 27.0823C20.3456 28.0815 21.0445 28.936 21.942 29.5381C22.8395 30.1401 23.8953 30.4627 24.976 30.4649C26.425 30.4619 27.8141 29.8862 28.8403 28.8632C29.8665 27.8402 30.4466 26.4529 30.4541 25.004V24.9982ZM30.5827 20.8204C30.9027 20.8209 31.2157 20.7266 31.4821 20.5492C31.7485 20.3718 31.9562 20.1194 32.0791 19.8239C32.2019 19.5284 32.2344 19.2031 32.1723 18.8892C32.1102 18.5752 31.9564 18.2868 31.7303 18.0603C31.5042 17.8338 31.216 17.6795 30.9022 17.6168C30.5884 17.5542 30.263 17.5861 29.9673 17.7084C29.6716 17.8307 29.4188 18.038 29.2409 18.3041C29.0631 18.5701 28.9682 18.8829 28.9682 19.203C28.9711 19.6311 29.1419 20.0409 29.4438 20.3444C29.7457 20.6479 30.1547 20.8209 30.5827 20.8261V20.8204Z" fill="#FA7E1E"/>
<path d="M29.2796 24.995C29.2796 25.8427 29.0282 26.6715 28.5572 27.3764C28.0862 28.0813 27.4167 28.6307 26.6335 28.9551C25.8502 29.2796 24.9884 29.3644 24.1569 29.199C23.3254 29.0336 22.5616 28.6254 21.9622 28.0259C21.3627 27.4265 20.9544 26.6627 20.789 25.8312C20.6236 24.9997 20.7085 24.1378 21.033 23.3546C21.3574 22.5713 21.9068 21.9019 22.6117 21.4309C23.3166 20.9599 24.1454 20.7085 24.9931 20.7085C26.1281 20.7145 27.2149 21.168 28.0175 21.9706C28.8201 22.7732 29.2736 23.86 29.2796 24.995V24.995Z" fill="#FA7E1E"/>
<path d="M31.0255 19.2114C31.0255 19.2995 30.9992 19.3856 30.95 19.4586C30.9008 19.5317 30.8309 19.5884 30.7493 19.6216C30.6677 19.6548 30.5781 19.6628 30.4919 19.6448C30.4057 19.6268 30.3268 19.5834 30.2653 19.5203C30.2038 19.4572 30.1626 19.3773 30.1468 19.2906C30.131 19.2039 30.1414 19.1145 30.1767 19.0338C30.212 18.9531 30.2706 18.8848 30.3449 18.8375C30.4192 18.7902 30.5059 18.7662 30.594 18.7685C30.7083 18.7748 30.8161 18.8239 30.896 18.9059C30.9759 18.9879 31.0221 19.0969 31.0255 19.2114V19.2114Z" fill="#FA7E1E"/>
</svg>
