<svg width="50" height="50" viewBox="0 0 50 50" fill="none" xmlns="http://www.w3.org/2000/svg">
<rect width="50" height="50" rx="5" fill="white"/>
<path d="M26.1484 15C26.3681 15.0637 26.5943 15.102 26.8227 15.1143C28.17 15.3075 29.4472 15.8361 30.537 16.6514C31.3787 17.2748 32.0635 18.0858 32.537 19.02C33.0193 19.9611 33.2655 21.0054 33.2541 22.0629C33.2603 23.4807 32.9085 24.8772 32.2313 26.1228C31.2913 27.8028 29.9227 28.9514 28.0227 29.3942C27.0161 29.6721 25.9448 29.5986 24.9856 29.1857C24.5126 28.9935 24.1036 28.6716 23.8056 28.2571C23.7985 28.2414 23.7878 28.2275 23.7744 28.2166C23.761 28.2057 23.7453 28.198 23.7284 28.1942L23.0084 30.84C22.7198 31.8125 22.2976 32.7404 21.7542 33.5971C21.5027 34.0142 21.2284 34.4171 20.9627 34.8256C20.9113 34.9028 20.8684 35.02 20.7513 34.9971C20.6342 34.9742 20.6313 34.8399 20.617 34.7428C20.3978 33.531 20.3392 32.2956 20.4427 31.0685C20.544 30.3922 20.6929 29.7239 20.8884 29.0685C21.2513 27.5686 21.6284 26.0686 22.0027 24.5686C22.0286 24.4736 22.0205 24.3725 21.9799 24.2829C21.5656 23.1857 21.4999 22.0857 22.0199 21.0086C22.1604 20.6772 22.3791 20.3849 22.6572 20.1565C22.9354 19.9282 23.2647 19.7705 23.617 19.6971C23.8457 19.6402 24.0844 19.6358 24.3151 19.6842C24.5458 19.7326 24.7625 19.8325 24.9491 19.9765C25.1357 20.1205 25.2873 20.3049 25.3926 20.5157C25.4978 20.7266 25.5541 20.9586 25.557 21.1943C25.5607 21.7419 25.4738 22.2864 25.2999 22.8057C25.0627 23.6286 24.7799 24.4371 24.5456 25.2628C24.1341 26.6914 25.2656 27.6685 26.5141 27.5971C27.9113 27.5171 28.8627 26.74 29.537 25.5971C30.0572 24.654 30.3434 23.5996 30.3713 22.5228C30.4308 21.7475 30.3246 20.9683 30.0598 20.2371C29.8523 19.6635 29.5284 19.139 29.1085 18.6965C28.6887 18.254 28.1818 17.903 27.6199 17.6657C26.7644 17.2735 25.8308 17.0817 24.89 17.105C23.9493 17.1283 23.0263 17.366 22.1913 17.8C21.428 18.1632 20.77 18.7151 20.2796 19.4036C19.7891 20.092 19.4824 20.8942 19.3884 21.7343C19.2948 22.3304 19.3244 22.9394 19.4752 23.5236C19.6261 24.1079 19.8951 24.6551 20.2656 25.1314C20.3149 25.1921 20.3487 25.2639 20.3641 25.3405C20.3795 25.4171 20.3761 25.4964 20.3542 25.5714C20.2456 25.98 20.1427 26.3885 20.0342 26.7942C19.9484 27.1085 19.8313 27.16 19.5399 27.0228C18.922 26.7196 18.4014 26.2495 18.037 25.6657C17.1468 24.3595 16.8108 22.7535 17.1027 21.2C17.6399 18.2057 19.4627 16.3429 22.3027 15.4371C22.981 15.2318 23.6792 15.0996 24.3856 15.0429C24.4256 15.0429 24.4799 15.0657 24.5027 15.0029L26.1484 15Z" fill="#E60023"/>
</svg>
