<svg width="50" height="50" viewBox="0 0 50 50" fill="none" xmlns="http://www.w3.org/2000/svg">
<rect width="50" height="50" rx="5" fill="white"/>
<g clip-path="url(#clip0_135_10710)">
<path d="M33.207 30.1055H32.0625C32.0039 30.6328 31.6523 31.3086 30.7734 31.3086C29.9727 31.3086 29.3945 30.7539 28.8398 29.9102C30.5664 28.5742 31.7578 26.4922 31.7578 23.9336C31.7617 19.3437 27.9844 16.25 24.0078 16.25C20.1133 16.25 16.2852 19.3633 16.2852 23.9336C16.2852 29.1719 21.4141 32.5898 26.0117 31.3164C26.7812 32.6289 27.7969 33.75 29.7305 33.75C32.9258 33.75 33.2773 30.8086 33.207 30.1055ZM27.6016 27.8594C26.8398 26.7188 25.8945 25.8203 24.0273 25.8203C22.8359 25.8203 21.9062 26.2109 21.332 26.7109L21.8086 27.6602C22.0508 27.543 22.3164 27.5039 22.582 27.5039C23.9687 27.5039 24.6797 28.707 25.2852 29.8984C24.8945 30.0156 24.4766 30.0625 24.0078 30.0625C21.0781 30.0625 19.8086 27.9922 19.8086 23.9414C19.8086 19.8633 21.0781 17.7734 24.0078 17.7734C26.9844 17.7734 28.2539 19.8633 28.2539 23.9336C28.2578 25.5664 28.043 26.8867 27.6016 27.8594Z" fill="#FF4500"/>
</g>
<defs>
<clipPath id="clip0_135_10710">
<rect width="17.5" height="20" fill="white" transform="translate(16 15)"/>
</clipPath>
</defs>
</svg>
