<svg width="50" height="50" viewBox="0 0 50 50" fill="none" xmlns="http://www.w3.org/2000/svg">
<rect width="50" height="50" rx="5" fill="white"/>
<path d="M29.5703 20.4141C28.5859 20.4141 27.7617 19.7305 27.543 18.8125C26.3477 18.9805 25.4258 20.0117 25.4258 21.25V21.2578C27.2773 21.3281 28.9648 21.8477 30.3047 22.6758C30.7969 22.2969 31.4141 22.0703 32.082 22.0703C33.6953 22.0703 35 23.375 35 24.9883C35 26.1523 34.3203 27.1563 33.332 27.625C33.2383 31.0156 29.543 33.7422 25.0039 33.7422C20.4648 33.7422 16.7773 31.0195 16.6797 27.6328C15.6875 27.168 15 26.1602 15 24.9883C15 23.375 16.3047 22.0703 17.918 22.0703C18.5898 22.0703 19.207 22.2969 19.7031 22.6797C21.0313 21.8555 22.7031 21.3359 24.5352 21.2578V21.2461C24.5352 19.5156 25.8516 18.0859 27.5352 17.9063C27.7266 16.9609 28.5625 16.25 29.5703 16.25C30.7187 16.25 31.6523 17.1836 31.6523 18.332C31.6523 19.4805 30.7187 20.4141 29.5703 20.4141ZM21.1523 24.9727C20.3359 24.9727 19.6328 25.7852 19.582 26.8438C19.5313 27.9023 20.25 28.332 21.0664 28.332C21.8828 28.332 22.4961 27.9492 22.543 26.8906C22.5898 25.832 21.9687 24.9727 21.1484 24.9727H21.1523ZM30.4297 26.8398C30.3828 25.7813 29.6797 24.9687 28.8594 24.9687C28.0391 24.9687 27.418 25.8281 27.4648 26.8867C27.5117 27.9453 28.125 28.3281 28.9414 28.3281C29.7578 28.3281 30.4766 27.8984 30.4258 26.8398H30.4297ZM28.082 29.6055C28.1406 29.4648 28.043 29.3047 27.8906 29.2891C26.9922 29.1992 26.0195 29.1484 25.0078 29.1484C23.9961 29.1484 23.0234 29.1992 22.125 29.2891C21.9727 29.3047 21.875 29.4648 21.9336 29.6055C22.4375 30.8086 23.625 31.6523 25.0078 31.6523C26.3906 31.6523 27.5781 30.8086 28.082 29.6055Z" fill="#FF4500"/>
</svg>
