<svg width="50" height="50" viewBox="0 0 50 50" fill="none" xmlns="http://www.w3.org/2000/svg">
<rect width="50" height="50" rx="5" fill="#00AFF0"/>
<g clip-path="url(#clip0_135_10703)">
<path d="M32.5898 26.7109C32.7031 26.1641 32.7734 25.582 32.7734 25C32.7734 20.5664 29.1836 16.9805 24.7539 16.9805C24.1719 16.9805 23.5938 17.0469 23.043 17.1641C22.3008 16.5898 21.3789 16.25 20.375 16.25C17.9609 16.25 16 18.2109 16 20.625C16 21.6289 16.3398 22.5508 16.9102 23.2891C16.7969 23.8359 16.7266 24.418 16.7266 25C16.7266 29.4336 20.3164 33.0195 24.7461 33.0195C25.3281 33.0195 25.9063 32.9531 26.457 32.8359C27.1992 33.4063 28.1211 33.7461 29.1211 33.7461C31.5352 33.7461 33.4961 31.7852 33.4961 29.3711C33.5 28.3711 33.1602 27.4492 32.5898 26.7109ZM24.9883 30.2852C22.4258 30.2852 20.2812 29.1445 20.2812 27.7461C20.2812 27.1211 20.6328 26.5508 21.4336 26.5508C22.6523 26.5508 22.7656 28.3047 24.875 28.3047C25.8789 28.3047 26.5273 27.8594 26.5273 27.2773C26.5273 26.5469 25.9023 26.4336 24.8867 26.1836C22.4453 25.582 20.2852 25.3242 20.2852 22.7773C20.2852 20.4648 22.5742 19.6094 24.5469 19.6094C26.6992 19.6094 28.875 20.4648 28.875 21.7734C28.875 22.4336 28.4297 23.0156 27.6914 23.0156C26.5859 23.0156 26.5508 21.707 24.7617 21.707C23.7578 21.707 23.1211 21.9805 23.1211 22.5859C23.1211 23.3594 23.9336 23.4375 25.8203 23.875C27.4375 24.2383 29.3633 24.9219 29.3633 26.9062C29.3633 29.2148 27.1328 30.2852 24.9883 30.2852Z" fill="white"/>
</g>
<defs>
<clipPath id="clip0_135_10703">
<rect width="17.5" height="20" fill="white" transform="translate(16 15)"/>
</clipPath>
</defs>
</svg>
