<svg width="50" height="50" viewBox="0 0 50 50" fill="none" xmlns="http://www.w3.org/2000/svg">
<rect width="50" height="50" rx="5" fill="white"/>
<g clip-path="url(#clip0_135_10704)">
<path d="M34.4101 29.3203C34.2773 28.9609 34.0273 28.7695 33.7421 28.6094C33.6875 28.5781 33.6406 28.5508 33.5976 28.5352C33.5117 28.4922 33.4257 28.4492 33.3398 28.4023C32.4492 27.9297 31.7539 27.3359 31.2695 26.6289C31.1324 26.4304 31.0134 26.2199 30.914 26C30.8711 25.8828 30.875 25.8164 30.9062 25.7539C30.9355 25.7075 30.9741 25.6676 31.0195 25.6367C31.1718 25.5352 31.332 25.4336 31.4375 25.3633C31.6289 25.2383 31.7812 25.1406 31.875 25.0742C32.2421 24.8203 32.4961 24.5469 32.6562 24.2422C32.7677 24.0323 32.8328 23.8009 32.8469 23.5636C32.8611 23.3264 32.824 23.0888 32.7382 22.8672C32.4961 22.2305 31.8945 21.8359 31.164 21.8359C31.0105 21.8353 30.8572 21.851 30.707 21.8828C30.6679 21.8906 30.625 21.9023 30.5859 21.9102C30.5937 21.4727 30.582 21.0156 30.5429 20.5625C30.4062 18.9687 29.8476 18.1367 29.2656 17.4688C28.895 17.0512 28.4581 16.6975 27.9726 16.4219C27.0898 15.918 26.0898 15.6641 25 15.6641C23.9101 15.6641 22.914 15.918 22.0312 16.4219C21.5427 16.6965 21.1031 17.0503 20.7304 17.4688C20.1484 18.1328 19.5898 18.9687 19.4531 20.5625C19.414 21.0156 19.4062 21.4766 19.4101 21.9102C19.3711 21.8984 19.332 21.8906 19.289 21.8828C19.1388 21.851 18.9856 21.8353 18.832 21.8359C18.1015 21.8359 17.5 22.2305 17.2578 22.8672C17.1714 23.0886 17.1337 23.3259 17.1471 23.5632C17.1606 23.8004 17.225 24.032 17.3359 24.2422C17.4961 24.5469 17.7539 24.8164 18.1172 25.0742C18.2148 25.1406 18.3672 25.2383 18.5547 25.3633C18.6562 25.4297 18.8086 25.5273 18.957 25.625C19.0086 25.6583 19.0526 25.7023 19.0859 25.7539C19.1172 25.8164 19.1172 25.8867 19.0703 26.0117C18.9729 26.2274 18.8566 26.4339 18.7226 26.6289C18.25 27.3203 17.5742 27.9023 16.7148 28.3711C16.2656 28.6172 15.789 28.7813 15.5898 29.3242C15.4375 29.7344 15.539 30.2031 15.9218 30.5977C16.0628 30.745 16.2263 30.869 16.4062 30.9648C16.7801 31.1699 17.1775 31.3286 17.5898 31.4375C17.6746 31.4591 17.7551 31.4947 17.8281 31.543C17.9687 31.6641 17.9492 31.8516 18.1328 32.1211C18.2268 32.2605 18.346 32.381 18.4843 32.4766C18.875 32.7461 19.3164 32.7656 19.7812 32.7813C20.2031 32.7969 20.6797 32.8164 21.2226 32.9961C21.4492 33.0703 21.6836 33.2148 21.9531 33.3828C22.6093 33.7891 23.5039 34.3359 25 34.3359C26.4961 34.3359 27.3945 33.7852 28.0507 33.3828C28.3203 33.2188 28.5547 33.0742 28.7734 33C29.3164 32.8203 29.7968 32.8008 30.2148 32.7852C30.6796 32.7656 31.1211 32.75 31.5117 32.4805C31.6752 32.3659 31.8113 32.2164 31.9101 32.043C32.0429 31.8164 32.039 31.6563 32.1679 31.543C32.2372 31.4966 32.3138 31.4623 32.3945 31.4414C32.8122 31.3323 33.215 31.1722 33.5937 30.9648C33.7846 30.8622 33.9564 30.7274 34.1015 30.5664L34.1054 30.5625C34.4687 30.1758 34.5586 29.7227 34.4101 29.3203ZM33.082 30.0352C32.2734 30.4844 31.7343 30.4336 31.3125 30.7031C30.957 30.9336 31.1679 31.4258 30.9101 31.6055C30.5937 31.8242 29.6523 31.5898 28.4414 31.9922C27.4414 32.3242 26.8007 33.2734 25.0039 33.2734C23.207 33.2734 22.582 32.3242 21.5625 31.9883C20.3515 31.5859 19.4101 31.8242 19.0937 31.6016C18.8359 31.4219 19.0468 30.9297 18.6914 30.6992C18.2734 30.4297 17.7343 30.4766 16.9218 30.0312C16.4062 29.7461 16.6992 29.5703 16.8711 29.4883C19.8047 28.0664 20.2734 25.8711 20.2968 25.7109C20.3203 25.5156 20.3515 25.3594 20.1328 25.1602C19.9218 24.9648 18.9922 24.3906 18.7343 24.2109C18.3086 23.9141 18.1211 23.6133 18.2578 23.25C18.3554 22.9961 18.5898 22.9023 18.8398 22.9023C18.9187 22.9029 18.9973 22.912 19.0742 22.9297C19.5429 23.0312 20 23.2656 20.2617 23.3281C20.2937 23.3359 20.3264 23.3398 20.3593 23.3398C20.5 23.3398 20.5507 23.2695 20.539 23.1094C20.5078 22.5977 20.4375 21.5977 20.5156 20.6641C20.625 19.3789 21.039 18.7422 21.5312 18.1797C21.7695 17.9102 22.8789 16.7344 25.0039 16.7344C27.1289 16.7344 28.2421 17.9023 28.4765 18.1719C28.9687 18.7344 29.3828 19.3711 29.4921 20.6563C29.5742 21.5898 29.5039 22.5898 29.4687 23.1016C29.457 23.2695 29.5078 23.332 29.6484 23.332C29.6813 23.332 29.7141 23.3281 29.7461 23.3203C30.0078 23.2578 30.4648 23.0234 30.9336 22.9219C31.0104 22.9042 31.089 22.895 31.1679 22.8945C31.4179 22.8945 31.6523 22.9922 31.75 23.2422C31.8867 23.6094 31.7031 23.9063 31.2734 24.2031C31.0156 24.3828 30.0859 24.957 29.875 25.1523C29.6562 25.3516 29.6875 25.5078 29.7109 25.7031C29.7304 25.8672 30.1992 28.0625 33.1367 29.4805C33.3046 29.5703 33.5976 29.7461 33.082 30.0352Z" fill="#BEBC02"/>
</g>
<defs>
<clipPath id="clip0_135_10704">
<rect width="20" height="20" fill="white" transform="translate(15 15)"/>
</clipPath>
</defs>
</svg>
