<svg width="50" height="50" viewBox="0 0 50 50" fill="none" xmlns="http://www.w3.org/2000/svg">
<rect width="50" height="50" rx="5" fill="white"/>
<path d="M33.4922 21C33.4141 22.7031 32.2266 25.0351 29.9219 27.9961C27.543 31.0898 25.5313 32.6367 23.8828 32.6367C22.8633 32.6367 22 31.6953 21.293 29.8125C19.918 24.7656 19.332 21.8086 18.1953 21.8086C18.0625 21.8086 17.6055 22.0859 16.8203 22.6328L16 21.5703C18.0156 19.8008 19.9414 17.832 21.1484 17.7226C22.5117 17.5898 23.3477 18.5234 23.6641 20.5156C24.7852 27.6055 25.2813 28.6758 27.3203 25.4648C28.0508 24.3086 28.4453 23.4297 28.5 22.8242C28.6875 21.0312 27.1016 21.1523 26.0273 21.6133C26.8867 18.7969 28.5313 17.4297 30.957 17.5078C32.7461 17.5547 33.5938 18.7226 33.4922 21Z" fill="#1AB7EA"/>
</svg>
